<svg width="422" height="494" viewBox="0 0 422 494" fill="none" xmlns="http://www.w3.org/2000/svg">
<path d="M294.282 322.531C303.318 360.574 277.7 379.687 256.739 381.534C241.182 382.919 228.047 377.563 218.173 365.375C208.391 353.371 206.528 339.613 210.347 324.285H163.396C167.216 341.368 164.701 356.788 151.938 369.253C143.181 377.84 132.375 382.088 119.892 381.626C105.267 381.165 93.7152 374.701 85.1448 363.159C76.4812 351.525 76.6675 338.228 78.7169 324.285C73.3139 323.27 68.1902 323.916 63.1598 323.731C51.422 323.362 44.3421 311.728 49.9315 301.755C52.7262 296.861 57.0114 294.461 62.9735 294.461C101.447 294.553 140.014 294.461 178.488 294.461H278.631C284.221 294.461 289.065 292.983 292.605 288.459C295.679 284.488 297.169 280.149 295.12 275.162C292.791 269.53 288.692 266.39 282.544 265.652C263.354 263.159 244.163 260.85 225.066 257.895C211.652 255.864 198.051 254.571 184.543 252.725C171.222 250.97 157.9 248.939 144.579 247.184C130.605 245.338 116.632 243.676 102.658 241.829C88.4052 239.982 74.1523 238.135 59.8993 236.012C54.0304 235.088 50.3041 231.118 48.6273 225.578C38.8459 193.537 29.2507 161.312 19.5624 129.086C14.8114 113.204 9.78096 97.4147 4.75049 81.6252C1.95579 73.0379 7.82466 63.4349 16.8609 62.6039C19.935 62.3268 23.1024 62.3268 26.1765 62.3268C124.643 62.3268 223.017 62.2345 321.483 62.4192C326.048 62.4192 328.377 61.2188 330.054 56.879C340.394 29.4551 360.33 12.6498 388.836 5.53993C393.866 4.24722 398.897 3.87787 404.02 3.87787C412.684 3.78554 420.23 10.0644 420.882 17.913C421.441 25.4846 414.64 32.8715 405.697 33.5179C398.803 33.9796 392.189 34.7182 385.762 37.4883C370.391 44.2289 361.075 55.9556 356.045 71.5605C348.499 94.8293 340.86 118.006 333.221 141.182C324.93 166.575 316.546 191.967 308.255 217.36C306.299 223.362 304.343 229.363 302.2 235.273C300.989 238.597 301.548 240.813 304.808 242.937C320.179 253.002 327.166 267.406 325.023 285.504C322.974 302.125 313.565 313.574 298.194 320.407C296.89 321.054 295.586 321.792 294.282 322.531V322.531ZM257.671 91.5975C248.076 91.5975 238.853 91.6898 229.538 91.5052C225.811 91.4128 224.507 92.6132 224.228 96.4913C223.762 106.279 222.737 116.067 221.806 125.854C220.595 139.428 219.011 153.001 217.986 166.667C216.775 182.918 215.285 199.077 213.887 215.328C212.769 227.424 211.931 227.609 223.948 228.44C227.861 228.717 229.165 227.609 229.91 224.1C233.078 209.142 236.524 194.183 239.785 179.132C244.815 156.233 249.939 133.334 254.597 110.342C255.901 104.525 257.951 98.7997 257.671 91.5975V91.5975ZM194.324 92.5209C192.648 91.4128 190.784 91.5975 188.921 91.5975C182.214 91.5975 175.6 91.8745 168.893 91.5052C164.235 91.2281 162.558 92.7055 162.837 97.507C164.049 114.959 163.676 132.503 164.887 150.046C166.377 170.268 165.818 190.582 167.402 210.896C168.241 221.33 167.961 221.146 178.115 222.438C182.4 222.992 183.798 221.33 184.264 217.452C185.754 204.34 186.686 191.136 187.71 178.024C189.294 157.618 191.623 137.396 192.741 116.99C193.3 108.772 195.629 100.739 194.324 92.5209V92.5209ZM303.318 91.6898C303.318 91.5975 303.318 91.5975 303.318 91.6898C301.175 91.5975 298.939 91.5975 296.797 91.5975C288.599 91.5975 288.692 91.7822 287.015 99.7231C282.544 121.515 277.886 143.214 273.135 165.005C268.57 186.15 263.819 207.203 259.162 228.348C258.603 230.933 259.068 232.872 262.236 233.334C263.913 233.519 265.496 234.165 267.266 234.442C269.875 234.811 271.645 234.257 272.483 231.21C273.694 226.778 275.371 222.438 276.768 218.098C283.662 197.23 290.555 176.362 297.356 155.587C303.97 135.642 310.491 115.697 317.105 95.6603C317.943 93.1672 317.198 91.6898 314.403 91.6898C310.77 91.5975 307.044 91.6898 303.318 91.6898V91.6898ZM99.3977 91.6898C104.335 117.636 109.086 142.475 113.93 167.313C116.725 181.718 119.426 196.215 122.221 210.619C122.594 212.558 122.687 214.774 125.388 215.144C129.301 215.698 133.307 216.344 137.126 216.898C138.524 214.959 138.151 213.02 138.058 211.266C136.101 190.767 136.847 170.176 135.263 149.585C133.866 131.856 134.704 113.943 133.12 96.2143C132.934 94.2753 133.214 91.7822 130.326 91.7822C120.265 91.5975 110.204 91.6898 99.3977 91.6898V91.6898ZM91.4794 210.896C91.0136 202.032 88.7779 194.645 87.3805 187.166C84.8653 173.315 82.3501 159.372 79.7417 145.522C77.0401 131.21 74.0591 116.99 71.637 102.586C69.8671 91.9668 69.8671 91.5975 59.154 91.5975H45.1805C43.5037 91.5975 41.7337 91.3205 40.0569 92.8902C40.8953 98.6151 43.0379 104.248 44.8079 109.88C54.3099 141.459 63.905 173.038 73.407 204.71C73.8728 206.279 74.3386 208.034 75.9222 208.311C80.7664 209.326 85.7969 209.973 91.4794 210.896V210.896ZM121.103 323.824C113.092 323.916 106.943 329.918 107.13 337.859C107.316 347.554 113.744 351.894 121.383 352.356C129.022 352.817 135.449 345.892 135.543 338.136C135.636 330.287 129.115 323.731 121.103 323.824ZM266.614 337.859C266.521 330.01 260.466 323.824 252.547 323.824C244.629 323.731 237.829 330.472 238.015 338.136C238.201 345.615 245.002 352.448 252.268 352.54C259.907 352.633 266.614 345.707 266.614 337.859V337.859ZM297.915 476.086C297.915 483.104 293.909 488.644 288.226 490.214C280.774 492.245 273.88 489.845 270.247 483.196C263.26 470.546 254.224 459.928 242.58 451.34C224.6 438.136 204.199 431.58 182.028 433.058C147.28 435.458 120.824 452.079 103.497 482.273C98.373 491.23 87.9395 493.63 80.6732 487.721C75.2701 483.381 73.5933 475.348 77.1333 468.884C91.7589 442.014 113.464 422.901 142.064 411.636C156.316 406.003 171.315 402.494 186.499 403.048C234.754 404.803 271.738 426.132 295.958 468.053C297.449 470.823 298.287 473.501 297.915 476.086V476.086Z" fill="#70A177"/>
</svg>
