<svg width="91" height="16" viewBox="0 0 91 16" fill="currentColor" xmlns="http://www.w3.org/2000/svg">
<path d="M11.6699 15H0.976562V14.3652H2.92969V0.986328H0.976562V0.351562H7.08008V0.986328H5.0293V14.3652H8.37402C8.55306 14.3652 8.74023 14.349 8.93555 14.3164C9.84701 14.1048 10.498 13.2503 10.8887 11.7529L11.3037 10.1172H11.792L11.6699 15ZM24.4531 0.107422C26.1133 0.107422 27.5781 0.587565 28.8477 1.54785C30.7194 2.94759 31.6553 4.99023 31.6553 7.67578C31.6553 9.9707 30.8822 11.8424 29.3359 13.291C27.9525 14.5931 26.3005 15.2441 24.3799 15.2441C22.6709 15.2441 21.1572 14.7233 19.8389 13.6816C18.0322 12.2493 17.1289 10.2148 17.1289 7.57812C17.1289 5.29948 17.8939 3.45215 19.4238 2.03613C20.8236 0.750326 22.5 0.107422 24.4531 0.107422ZM24.4531 14.5605C25.1042 14.5605 25.7064 14.4385 26.2598 14.1943C28.2292 13.3317 29.2139 11.1263 29.2139 7.57812C29.1976 3.08594 27.5863 0.823568 24.3799 0.791016C23.9242 0.791016 23.4928 0.839844 23.0859 0.9375C20.7422 1.55599 19.5703 3.80208 19.5703 7.67578C19.5703 8.84766 19.6842 9.88118 19.9121 10.7764C20.5794 13.2992 22.0931 14.5605 24.4531 14.5605ZM46.8799 8.4082H52.959V9.04297H51.1279V15L49.0527 14.2432C48.9714 14.3083 48.8656 14.3734 48.7354 14.4385C47.7425 14.9756 46.6357 15.2441 45.415 15.2441C43.7386 15.2441 42.2249 14.7233 40.874 13.6816C39.0186 12.2168 38.0908 10.1823 38.0908 7.57812C38.0908 5.29948 38.8558 3.45215 40.3857 2.03613C41.7855 0.750326 43.4619 0.107422 45.415 0.107422C46.5706 0.107422 47.6611 0.359701 48.6865 0.864258L50.8105 0.424805L50.9326 5.16113H50.2979C49.9072 3.81022 49.4678 2.81738 48.9795 2.18262C48.2308 1.25488 47.0182 0.791016 45.3418 0.791016C44.8861 0.791016 44.4548 0.839844 44.0479 0.9375C41.7041 1.55599 40.5322 3.80208 40.5322 7.67578C40.5485 12.2005 42.1761 14.4792 45.415 14.5117C45.5452 14.5117 45.6755 14.5036 45.8057 14.4873C47.1729 14.3734 48.2633 13.8281 49.0771 12.8516V9.04297H46.8799V8.4082ZM66.1084 0.107422C67.7686 0.107422 69.2334 0.587565 70.5029 1.54785C72.3747 2.94759 73.3105 4.99023 73.3105 7.67578C73.3105 9.9707 72.5374 11.8424 70.9912 13.291C69.6077 14.5931 67.9557 15.2441 66.0352 15.2441C64.3262 15.2441 62.8125 14.7233 61.4941 13.6816C59.6875 12.2493 58.7842 10.2148 58.7842 7.57812C58.7842 5.29948 59.5492 3.45215 61.0791 2.03613C62.4788 0.750326 64.1553 0.107422 66.1084 0.107422ZM66.1084 14.5605C66.7594 14.5605 67.3617 14.4385 67.915 14.1943C69.8844 13.3317 70.8691 11.1263 70.8691 7.57812C70.8529 3.08594 69.2415 0.823568 66.0352 0.791016C65.5794 0.791016 65.1481 0.839844 64.7412 0.9375C62.3975 1.55599 61.2256 3.80208 61.2256 7.67578C61.2256 8.84766 61.3395 9.88118 61.5674 10.7764C62.2347 13.2992 63.7484 14.5605 66.1084 14.5605ZM90.2686 11.167C90.2686 12.1598 89.9186 13.0143 89.2188 13.7305C88.1934 14.7396 86.7448 15.2441 84.873 15.2441C83.278 15.2441 81.8538 14.8291 80.6006 13.999C80.6006 14.3408 80.5843 14.5768 80.5518 14.707C80.4867 14.9349 80.2588 15.0488 79.8682 15.0488V9.99512H80.6006C80.8773 13.0062 82.2607 14.528 84.751 14.5605C85.3857 14.5605 85.9635 14.4466 86.4844 14.2188C87.5911 13.7142 88.1445 12.8923 88.1445 11.7529C88.1445 11.3135 88.0387 10.9066 87.8271 10.5322C87.4365 9.86491 86.5088 9.20573 85.0439 8.55469C83.4652 7.87109 82.5374 7.45605 82.2607 7.30957C80.7308 6.44694 79.9658 5.33203 79.9658 3.96484C79.9658 3.05339 80.2913 2.25586 80.9424 1.57227C81.9189 0.595703 83.2861 0.107422 85.0439 0.107422C86.4925 0.107422 87.7946 0.424805 88.9502 1.05957C88.9502 0.864258 88.9665 0.709635 88.999 0.595703C89.0641 0.351562 89.292 0.229492 89.6826 0.229492V4.50195H88.9502C88.9665 3.59049 88.7386 2.81738 88.2666 2.18262C87.5505 1.25488 86.5088 0.791016 85.1416 0.791016C84.5882 0.791016 84.0837 0.880534 83.6279 1.05957C82.57 1.48275 82.041 2.23958 82.041 3.33008C82.041 3.73698 82.1387 4.11947 82.334 4.47754C82.7083 5.12858 83.6198 5.76335 85.0684 6.38184C86.6634 7.08171 87.6156 7.51302 87.9248 7.67578C89.4873 8.55469 90.2686 9.71842 90.2686 11.167Z"/>
</svg>
